


//Den här funktionen spelar lilla snigel

    void playLillaSnigel(){
  int melody[] = {NOTE_G4, NOTE_G4, NOTE_E4, NOTE_E4, NOTE_G4, NOTE_G4, NOTE_E4, NOTE_F4, NOTE_F4, NOTE_D4, NOTE_G4, NOTE_G4, NOTE_E4, NOTE_G4, NOTE_G4, NOTE_E4, NOTE_E4, NOTE_G4, NOTE_G4, NOTE_E4, NOTE_F4, NOTE_F4, NOTE_D4, NOTE_D4, NOTE_C4};

int noteDurations[] = {4, 4, 4, 4, 4, 4, 2, 4, 4, 2, 4, 4, 2, 4, 4, 4, 4, 4, 4, 2, 4, 4, 4, 4, 2}; 

  // iterate over the notes of the melody:
  for (int thisNote = 0; thisNote < 25; thisNote++) {
  int noteDuration = 1500 / noteDurations[thisNote];
  tone(A3, melody[thisNote], noteDuration);
  int pauseBetweenNotes = noteDuration * 1.10;
  delay(pauseBetweenNotes);
  noTone(A3);
  
}
    } 

     void playBlinkaLilla(){
    
      int melody[] = {NOTE_C4, NOTE_C4, NOTE_G4, NOTE_G4, NOTE_A4, NOTE_A4, NOTE_G4, NOTE_F4, NOTE_F4, NOTE_E4, NOTE_E4, NOTE_D4, NOTE_D4, NOTE_C4, NOTE_G4, NOTE_G4, NOTE_F4, NOTE_F4, NOTE_E4, NOTE_E4, NOTE_D4,NOTE_G4, NOTE_G4, NOTE_F4, NOTE_F4, NOTE_E4, NOTE_E4, NOTE_D4,NOTE_C4, NOTE_C4, NOTE_G4, NOTE_G4, NOTE_A4, NOTE_A4, NOTE_G4, NOTE_F4, NOTE_F4, NOTE_E4, NOTE_E4, NOTE_D4, NOTE_D4, NOTE_C4};

int noteDurations[] = {4, 4, 4, 4, 4, 4, 2, 4, 4, 4, 4, 4, 4, 2, 4, 4, 4, 4, 4, 4, 2, 4, 4, 4, 4, 4, 4, 2, 4, 4, 4, 4, 4, 4, 2, 4, 4, 4, 4, 4, 4, 2};  

  // iterate over the notes of the melody:
  for (int thisNote = 0; thisNote < 42; thisNote++) {
  int noteDuration = 1000 / noteDurations[thisNote];
  tone(A3, melody[thisNote], noteDuration);
  int pauseBetweenNotes = noteDuration * 1.30;
  delay(pauseBetweenNotes);
  noTone(A3);
  }
     }

     void playBleedTheFreak(){
      
      int melody[] = {NOTE_B3, NOTE_FS4, NOTE_B4, NOTE_G3, NOTE_FS4, NOTE_B4, NOTE_A3, NOTE_B4, NOTE_E3, NOTE_B3, NOTE_FS4, NOTE_B4, NOTE_FS4, NOTE_B3, NOTE_B4, NOTE_FS4, NOTE_B3, NOTE_FS4, NOTE_B4, NOTE_G3, NOTE_FS4, NOTE_B4, NOTE_A3, NOTE_B4, NOTE_A3, NOTE_G3, NOTE_E3, NOTE_B3, NOTE_FS4, NOTE_B4, NOTE_FS4, NOTE_B3, NOTE_FS4, NOTE_B4, NOTE_G3, NOTE_FS4, NOTE_B4, NOTE_A3, NOTE_B4, NOTE_E3, NOTE_B3, NOTE_FS4, NOTE_B4, NOTE_FS4, NOTE_B3, NOTE_B4, NOTE_FS4, NOTE_B3, NOTE_FS4, NOTE_B4, NOTE_G3, NOTE_FS4, NOTE_B4, NOTE_A3, NOTE_B4, NOTE_A3, NOTE_G3, NOTE_E3};
int noteDurations[] = {4, 4, 4, 4, 4, 4, 4, 4, 4, 4, 4, 4, 4, 4, 4, 4, 4, 4, 4, 4, 4, 4, 4, 4, 4, 4, 2, 4, 4, 4, 4, 4, 4, 4, 4, 4, 4, 4, 4, 4, 4, 4, 4, 4, 4, 4, 4, 4, 4, 4, 4, 4, 4, 4, 4, 4, 4, 1};  

// iterate over the notes of the melody:
  for (int thisNote = 0; thisNote < 58; thisNote++) {
  int noteDuration = 1000 / noteDurations[thisNote];
  tone(A3, melody[thisNote], noteDuration);
  int pauseBetweenNotes = noteDuration * 1.1;
  delay(pauseBetweenNotes);
  noTone(A3);
  }
     }

     --------------
      void harryPotter(){
     int melody[] = {
  REST, NOTE_D4,
  NOTE_G4, NOTE_AS4, NOTE_A4,
  NOTE_G4, NOTE_D5,
  NOTE_C5, 
  NOTE_A4,
  NOTE_G4, NOTE_AS4, NOTE_A4,
  NOTE_F4, NOTE_GS4,
  NOTE_D4, 
  NOTE_D4,
  
  NOTE_G4, NOTE_AS4, NOTE_A4,
  NOTE_G4, NOTE_D5,
  NOTE_F5, NOTE_E5,
  NOTE_DS5, NOTE_B4,
  NOTE_DS5, NOTE_D5, NOTE_CS5,
  NOTE_CS4, NOTE_B4,
  NOTE_G4,
  NOTE_AS4,
   
  NOTE_D5, NOTE_AS4,
  NOTE_D5, NOTE_AS4,
  NOTE_DS5, NOTE_D5,
  NOTE_CS5, NOTE_A4,
  NOTE_AS4, NOTE_D5, NOTE_CS5,
  NOTE_CS4, NOTE_D4,
  NOTE_D5, 
  REST, NOTE_AS4,  
  
  NOTE_D5, NOTE_AS4,
  NOTE_D5, NOTE_AS4,
  NOTE_F5, NOTE_E5,
  NOTE_DS5, NOTE_B4,
  NOTE_DS5, NOTE_D5, NOTE_CS5,
  NOTE_CS4, NOTE_AS4,
  NOTE_G4
};

int durations[] = {
  2, 4,
  4, 8, 4,
  2, 4,
  2, 
  2,
  4, 8, 4,
  2, 4,
  1, 
  4,
  
  4, 8, 4,
  2, 4,
  2, 4,
  2, 4,
  4, 8, 4,
  2, 4,
  1,
  4,
   
  2, 4,
  2, 4,
  2, 4,
  2, 4,
  4, 8, 4,
  2, 4,
  1, 
  4, 4,  
  
  2, 4,
  2, 4,
  2, 4,
  2, 4,
  4, 8, 4,
  2, 4,
  1
};

 int size = sizeof(durations) / sizeof(int);

  for (int note = 0; note < size; note++) {
    //to calculate the note duration, take one second divided by the note type.
    //e.g. quarter note = 1000 / 4, eighth note = 1000/8, etc.
    int duration = 1000 / durations[note];
    tone(BUZZER_PIN, melody[note], duration);

    //to distinguish the notes, set a minimum time between them.
    //the note's duration + 30% seems to work well:
    int pauseBetweenNotes = duration * 1.30;
    delay(pauseBetweenNotes);
    
    //stop the tone playing:
    noTone(BUZZER_PIN);
  }
      }

----------------------

void piratesOfTheCarribean(){

int melody[] = {
  NOTE_E4, NOTE_G4, NOTE_A4, NOTE_A4, REST,
  NOTE_A4, NOTE_B4, NOTE_C5, NOTE_C5, REST,
  NOTE_C5, NOTE_D5, NOTE_B4, NOTE_B4, REST,
  NOTE_A4, NOTE_G4, NOTE_A4, REST,
  
  NOTE_E4, NOTE_G4, NOTE_A4, NOTE_A4, REST,
  NOTE_A4, NOTE_B4, NOTE_C5, NOTE_C5, REST,
  NOTE_C5, NOTE_D5, NOTE_B4, NOTE_B4, REST,
  NOTE_A4, NOTE_G4, NOTE_A4, REST,
  
  NOTE_E4, NOTE_G4, NOTE_A4, NOTE_A4, REST,
  NOTE_A4, NOTE_C5, NOTE_D5, NOTE_D5, REST,
  NOTE_D5, NOTE_E5, NOTE_F5, NOTE_F5, REST,
  NOTE_E5, NOTE_D5, NOTE_E5, NOTE_A4, REST,
  
  NOTE_A4, NOTE_B4, NOTE_C5, NOTE_C5, REST,
  NOTE_D5, NOTE_E5, NOTE_A4, REST,
  NOTE_A4, NOTE_C5, NOTE_B4, NOTE_B4, REST,
  NOTE_C5, NOTE_A4, NOTE_B4, REST,
  
  NOTE_A4, NOTE_A4,
  //Repeat of first part
  NOTE_A4, NOTE_B4, NOTE_C5, NOTE_C5, REST,
  NOTE_C5, NOTE_D5, NOTE_B4, NOTE_B4, REST,
  NOTE_A4, NOTE_G4, NOTE_A4, REST,
  
  NOTE_E4, NOTE_G4, NOTE_A4, NOTE_A4, REST,
  NOTE_A4, NOTE_B4, NOTE_C5, NOTE_C5, REST,
  NOTE_C5, NOTE_D5, NOTE_B4, NOTE_B4, REST,
  NOTE_A4, NOTE_G4, NOTE_A4, REST,
  
  NOTE_E4, NOTE_G4, NOTE_A4, NOTE_A4, REST,
  NOTE_A4, NOTE_C5, NOTE_D5, NOTE_D5, REST,
  NOTE_D5, NOTE_E5, NOTE_F5, NOTE_F5, REST,
  NOTE_E5, NOTE_D5, NOTE_E5, NOTE_A4, REST,
  
  NOTE_A4, NOTE_B4, NOTE_C5, NOTE_C5, REST,
  NOTE_D5, NOTE_E5, NOTE_A4, REST,
  NOTE_A4, NOTE_C5, NOTE_B4, NOTE_B4, REST,
  NOTE_C5, NOTE_A4, NOTE_B4, REST,
  //End of Repeat
  
  NOTE_E5, REST, REST, NOTE_F5, REST, REST,
  NOTE_E5, NOTE_E5, REST, NOTE_G5, REST, NOTE_E5, NOTE_D5, REST, REST,
  NOTE_D5, REST, REST, NOTE_C5, REST, REST,
  NOTE_B4, NOTE_C5, REST, NOTE_B4, REST, NOTE_A4,
  
  NOTE_E5, REST, REST, NOTE_F5, REST, REST,
  NOTE_E5, NOTE_E5, REST, NOTE_G5, REST, NOTE_E5, NOTE_D5, REST, REST,
  NOTE_D5, REST, REST, NOTE_C5, REST, REST,
  NOTE_B4, NOTE_C5, REST, NOTE_B4, REST, NOTE_A4
};

int durations[] = {
  8, 8, 4, 8, 8,
  8, 8, 4, 8, 8,
  8, 8, 4, 8, 8,
  8, 8, 4, 8,
  
  8, 8, 4, 8, 8,
  8, 8, 4, 8, 8,
  8, 8, 4, 8, 8,
  8, 8, 4, 8,
  
  8, 8, 4, 8, 8,
  8, 8, 4, 8, 8,
  8, 8, 4, 8, 8,
  8, 8, 8, 4, 8,
  
  8, 8, 4, 8, 8,
  4, 8, 4, 8,
  8, 8, 4, 8, 8,
  8, 8, 4, 4,
  
  4, 8,
  //Repeat of First Part
  8, 8, 4, 8, 8,
  8, 8, 4, 8, 8,
  8, 8, 4, 8,
  
  8, 8, 4, 8, 8,
  8, 8, 4, 8, 8,
  8, 8, 4, 8, 8,
  8, 8, 4, 8,
  
  8, 8, 4, 8, 8,
  8, 8, 4, 8, 8,
  8, 8, 4, 8, 8,
  8, 8, 8, 4, 8,
  
  8, 8, 4, 8, 8,
  4, 8, 4, 8,
  8, 8, 4, 8, 8,
  8, 8, 4, 4,
  //End of Repeat
  
  4, 8, 4, 4, 8, 4,
  8, 8, 8, 8, 8, 8, 8, 8, 4,
  4, 8, 4, 4, 8, 4,
  8, 8, 8, 8, 8, 2,
  
  4, 8, 4, 4, 8, 4,
  8, 8, 8, 8, 8, 8, 8, 8, 4,
  4, 8, 4, 4, 8, 4,
  8, 8, 8, 8, 8, 2
};

  int size = sizeof(durations) / sizeof(int);

  for (int note = 0; note < size; note++) {
    //to calculate the note duration, take one second divided by the note type.
    //e.g. quarter note = 1000 / 4, eighth note = 1000/8, etc.
    int duration = 1000 / durations[note];
    tone(BUZZER_PIN, melody[note], duration);

    //to distinguish the notes, set a minimum time between them.
    //the note's duration + 30% seems to work well:
    int pauseBetweenNotes = duration * 1.30;
    delay(pauseBetweenNotes);

    //stop the tone playing:
    noTone(BUZZER_PIN);
  }
}

void merryChristmas(){

  #include "pitches.h"

#define BUZZER_PIN 9

int melody[] = {
  NOTE_E5, NOTE_E5, NOTE_E5,
  NOTE_E5, NOTE_E5, NOTE_E5,
  NOTE_E5, NOTE_G5, NOTE_C5, NOTE_D5,
  NOTE_E5,
  NOTE_F5, NOTE_F5, NOTE_F5, NOTE_F5,
  NOTE_F5, NOTE_E5, NOTE_E5, NOTE_E5, NOTE_E5,
  NOTE_E5, NOTE_D5, NOTE_D5, NOTE_E5,
  NOTE_D5, NOTE_G5
};

int durations[] = {
  8, 8, 4,
  8, 8, 4,
  8, 8, 8, 8,
  2,
  8, 8, 8, 8,
  8, 8, 8, 16, 16,
  8, 8, 8, 8,
  4, 4
};

  int size = sizeof(durations) / sizeof(int);

  for (int note = 0; note < size; note++) {
    //to calculate the note duration, take one second divided by the note type.
    //e.g. quarter note = 1000 / 4, eighth note = 1000/8, etc.
    int duration = 1000 / durations[note];
    tone(BUZZER_PIN, melody[note], duration);

    //to distinguish the notes, set a minimum time between them.
    //the note's duration + 30% seems to work well:
    int pauseBetweenNotes = duration * 1.30;
    delay(pauseBetweenNotes);
    
    //stop the tone playing:
    noTone(BUZZER_PIN);
  }


}
